HIERARCHY
ROOT hip
{
  OFFSET 0 0 0
  CHANNELS 6 Xposition Yposition Zposition Zrotation Yrotation Xrotation
  JOINT abdomen
  {
    OFFSET 0 20.6881 -0.73152
    CHANNELS 3 Zrotation Xrotation Yrotation
    JOINT chest
    {
      OFFSET 0 11.7043 -0.48768
      CHANNELS 3 Zrotation Xrotation Yrotation
      JOINT neck
      {
        OFFSET 0 22.1894 -2.19456
        CHANNELS 3 Zrotation Xrotation Yrotation
        JOINT head
        {
          OFFSET -0.24384 7.07133 1.2192
          CHANNELS 3 Zrotation Xrotation Yrotation
          JOINT leftEye
          {
            OFFSET 4.14528 8.04674 8.04672
            CHANNELS 3 Zrotation Xrotation Yrotation
            End Site
            {
              OFFSET 1 0 0
            }
          }
          JOINT rightEye
          {
            OFFSET -3.6576 8.04674 8.04672
            CHANNELS 3 Zrotation Xrotation Yrotation
            End Site
            {
              OFFSET 1 0 0
            }
          }
        }
      }
      JOINT rCollar
      {
        OFFSET -2.68224 19.2634 -4.8768
        CHANNELS 3 Zrotation Xrotation Yrotation
        JOINT rShldr
        {
          OFFSET -8.77824 -1.95073 1.46304
          CHANNELS 3 Zrotation Xrotation Yrotation
          JOINT rForeArm
          {
            OFFSET -28.1742 -1.7115 0.48768
            CHANNELS 3 Zrotation Xrotation Yrotation
            JOINT rHand
            {
              OFFSET -22.5879 0.773209 7.07136
              CHANNELS 3 Zrotation Xrotation Yrotation
              JOINT rThumb1
              {
                OFFSET -1.2192 -0.487915 3.41376
                CHANNELS 3 Zrotation Xrotation Yrotation
                JOINT rThumb2
                {
                  OFFSET -3.37035 -0.52449 3.41376
                  CHANNELS 3 Zrotation Xrotation Yrotation
                  End Site
                  {
                    OFFSET -1.78271 -1.18214 1.43049
                  }
                }
              }
              JOINT rIndex1
              {
                OFFSET -7.75947 0.938293 5.60832
                CHANNELS 3 Zrotation Xrotation Yrotation
                JOINT rIndex2
                {
                  OFFSET -2.54057 -0.884171 1.56538
                  CHANNELS 3 Zrotation Xrotation Yrotation
                  End Site
                  {
                    OFFSET -1.62519 -0.234802 1.16502
                  }
                }
              }
              JOINT rMid1
              {
                OFFSET -8.24714 1.18213 3.41376
                CHANNELS 3 Zrotation Xrotation Yrotation
                JOINT rMid2
                {
                  OFFSET -3.10165 -0.590103 1.0647
                  CHANNELS 3 Zrotation Xrotation Yrotation
                  End Site
                  {
                    OFFSET -2.48547 -0.328903 0.83742
                  }
                }
              }
              JOINT rRing1
              {
                OFFSET -8.82822 0.546677 1.51678
                CHANNELS 3 Zrotation Xrotation Yrotation
                JOINT rRing2
                {
                  OFFSET -2.60934 -0.819778 -0.0198488
                  CHANNELS 3 Zrotation Xrotation Yrotation
                  End Site
                  {
                    OFFSET -2.33842 -0.294052 0.168128
                  }
                }
              }
              JOINT rPinky1
              {
                OFFSET -8.27202 -0.0477905 -0.4584
                CHANNELS 3 Zrotation Xrotation Yrotation
                JOINT rPinky2
                {
                  OFFSET -1.82734 -0.647385 -0.700984
                  CHANNELS 3 Zrotation Xrotation Yrotation
                  End Site
                  {
                    OFFSET -1.69225 -0.51767 -0.607171
                  }
                }
              }
            }
          }
        }
      }
      JOINT lCollar
      {
        OFFSET 2.68224 19.2634 -4.8768
        CHANNELS 3 Zrotation Xrotation Yrotation
        JOINT lShldr
        {
          OFFSET 8.77824 -1.95073 1.46304
          CHANNELS 3 Zrotation Xrotation Yrotation
          JOINT lForeArm
          {
            OFFSET 28.1742 -1.7115 0.48768
            CHANNELS 3 Zrotation Xrotation Yrotation
            JOINT lHand
            {
              OFFSET 22.5879 0.773209 7.07136
              CHANNELS 3 Zrotation Xrotation Yrotation
              JOINT lThumb1
              {
                OFFSET 1.2192 -0.487915 3.41376
                CHANNELS 3 Zrotation Xrotation Yrotation
                JOINT lThumb2
                {
                  OFFSET 3.37035 -0.52449 3.41376
                  CHANNELS 3 Zrotation Xrotation Yrotation
                  End Site
                  {
                    OFFSET 1.78271 -1.18214 1.43049
                  }
                }
              }
              JOINT lIndex1
              {
                OFFSET 7.75947 0.938293 5.60832
                CHANNELS 3 Zrotation Xrotation Yrotation
                JOINT lIndex2
                {
                  OFFSET 2.54057 -0.884171 1.56538
                  CHANNELS 3 Zrotation Xrotation Yrotation
                  End Site
                  {
                    OFFSET 1.62519 -0.234802 1.16502
                  }
                }
              }
              JOINT lMid1
              {
                OFFSET 8.24714 1.18213 3.41376
                CHANNELS 3 Zrotation Xrotation Yrotation
                JOINT lMid2
                {
                  OFFSET 3.10165 -0.590103 1.0647
                  CHANNELS 3 Zrotation Xrotation Yrotation
                  End Site
                  {
                    OFFSET 2.48547 -0.328903 0.83742
                  }
                }
              }
              JOINT lRing1
              {
                OFFSET 8.82822 0.546677 1.51678
                CHANNELS 3 Zrotation Xrotation Yrotation
                JOINT lRing2
                {
                  OFFSET 2.60934 -0.819778 -0.0198488
                  CHANNELS 3 Zrotation Xrotation Yrotation
                  End Site
                  {
                    OFFSET 2.33842 -0.294052 0.168128
                  }
                }
              }
              JOINT lPinky1
              {
                OFFSET 8.27202 -0.0477905 -0.4584
                CHANNELS 3 Zrotation Xrotation Yrotation
                JOINT lPinky2
                {
                  OFFSET 1.82734 -0.647385 -0.700984
                  CHANNELS 3 Zrotation Xrotation Yrotation
                  End Site
                  {
                    OFFSET 1.69225 -0.51767 -0.607171
                  }
                }
              }
            }
          }
        }
      }
    }
  }
  JOINT rButtock
  {
    OFFSET -8.77824 4.35084 1.2192
    CHANNELS 3 Zrotation Xrotation Yrotation
    JOINT rThigh
    {
      OFFSET 0 -1.70687 -2.19456
      CHANNELS 3 Zrotation Xrotation Yrotation
      JOINT rShin
      {
        OFFSET 0 -36.8199 0.73152
        CHANNELS 3 Zrotation Xrotation Yrotation
        JOINT rFoot
        {
          OFFSET 0.73152 -45.1104 -5.12064
          CHANNELS 3 Zrotation Xrotation Yrotation
          End Site
          {
            OFFSET -1.1221 -3.69964 12.103
          }
        }
      }
    }
  }
  JOINT lButtock
  {
    OFFSET 8.77824 4.35084 1.2192
    CHANNELS 3 Zrotation Xrotation Yrotation
    JOINT lThigh
    {
      OFFSET 0 -1.70687 -2.19456
      CHANNELS 3 Zrotation Xrotation Yrotation
      JOINT lShin
      {
        OFFSET 0 -36.8199 0.73152
        CHANNELS 3 Zrotation Xrotation Yrotation
        JOINT lFoot
        {
          OFFSET -0.73152 -45.1104 -5.12064
          CHANNELS 3 Zrotation Xrotation Yrotation
          End Site
          {
            OFFSET 1.1221 -3.69964 12.103
          }
        }
      }
    }
  }
}
MOTION
Frames:	9
Frame Time:	0.00833333
55.2971 79.0467 -68.0522 -12.3971 42.7215 -11.5614 -10.5792 16.3952 15.2376 -0.628378 -0.817052 3.9504 -12.8759 15.0347 -20.6439 35.3566 -16.3864 -35.8309 -0.0 0.0 0.0 -0.0 0.0 0.0 2.85994e-14 -1.99692e-14 -4.46818e-13 59.9734 -57.133 34.6194 -6.57676 -2.30706 11.5205 -0.274805 14.9039 2.14203 -1.37109e-09 9.26814e-12 -2.54473e-09 -2.40393e-09 3.00229e-10 -4.37189e-09 -1.37109e-09 9.26947e-12 -2.54473e-09 7.73091 5.47488 0.417314 -1.37109e-09 9.27125e-12 -2.54473e-09 2.90554 0.965183 0.102902 -1.37109e-09 9.26581e-12 -2.54473e-09 10.2786 0.731801 0.0259123 -1.37109e-09 9.27147e-12 -2.54473e-09 2.22167 -0.733487 -0.20892 2.85745e-14 -1.99747e-14 -4.46973e-13 -54.6143 0.342612 17.6571 19.2821 -12.1327 -36.9702 0.0457017 -6.08126 0.857936 1.85645e-09 -2.63762e-09 -1.1876e-09 3.22484e-09 -4.57125e-09 -2.05142e-09 1.85644e-09 -2.63762e-09 -1.18759e-09 -7.73091 5.47488 -0.417314 1.85645e-09 -2.63762e-09 -1.1876e-09 -2.90554 0.965183 -0.102902 1.85645e-09 -2.63763e-09 -1.1876e-09 -10.2786 0.731801 -0.0259123 1.85645e-09 -2.63762e-09 -1.18761e-09 -2.22167 -0.733487 0.20892 -2.03217e-16 0.0 -3.88251e-19 -8.58705 -26.9436 -13.986 -0.445909 44.9746 0.840646 1.06562 -4.38444 9.156 2.03217e-16 0.0 3.88251e-19 1.17374 -35.8281 0.233984 0.456779 45.2997 -0.830578 1.70846 -8.18545 5.32416
55.4354 78.8496 -67.7379 -11.4234 41.9448 -10.9977 -11.0964 16.6339 15.5684 -0.573887 -0.714295 4.01778 -13.0921 14.7404 -20.5637 35.1976 -17.0507 -35.4975 -0.0 0.0 0.0 -0.0 0.0 0.0 1.44306e-13 -3.23222e-13 -4.16553e-13 59.4922 -56.3633 35.0174 -6.61396 -2.3245 11.5875 -0.243753 13.9213 1.99635 -5.5996e-10 -4.53787e-09 -1.80769e-09 -9.89656e-10 -7.67228e-09 -3.11207e-09 -5.59953e-10 -4.53787e-09 -1.80769e-09 7.73091 5.47488 0.417314 -5.59963e-10 -4.53787e-09 -1.80769e-09 2.90554 0.965183 0.102902 -5.59958e-10 -4.53788e-09 -1.80769e-09 10.2786 0.731801 0.0259123 -5.59963e-10 -4.53787e-09 -1.80768e-09 2.22167 -0.733487 -0.20892 1.44289e-13 -3.23226e-13 -4.16702e-13 -54.6172 0.322724 17.5778 19.1029 -11.9237 -36.5441 0.0439042 -5.96942 0.842026 2.12289e-09 -2.38435e-09 -7.0566e-10 3.68423e-09 -4.12761e-09 -1.21311e-09 2.12288e-09 -2.38435e-09 -7.05654e-10 -7.73091 5.47488 -0.417314 2.12288e-09 -2.38435e-09 -7.05657e-10 -2.90554 0.965183 -0.102902 2.12288e-09 -2.38435e-09 -7.0566e-10 -10.2786 0.731801 -0.0259123 2.12289e-09 -2.38435e-09 -7.0567e-10 -2.22167 -0.733487 0.20892 -2.03217e-16 0.0 -3.88251e-19 -9.86586 -28.2587 -14.7464 -0.503142 47.1019 0.908532 1.14202 -2.90334 11.0691 2.03217e-16 0.0 3.88251e-19 0.891357 -35.7426 -0.0909937 0.474219 46.0266 -0.858368 1.80577 -7.56016 6.05739
55.5691 78.6161 -67.4035 -10.4881 41.2274 -10.4943 -11.8055 17.1384 15.9264 -0.589909 -0.811223 4.0734 -13.1755 14.4758 -20.4982 34.8956 -17.6955 -35.2167 -0.0 0.0 0.0 -0.0 0.0 0.0 2.16362e-13 -6.05228e-13 -3.29448e-13 61.1237 -57.0565 36.9509 -6.52934 -2.28556 11.4345 -0.276222 15.0584 2.16386 3.59421e-10 -8.29483e-09 -1.2404e-09 6.07696e-10 -1.42619e-08 -2.14746e-09 3.59428e-10 -8.29483e-09 -1.24041e-09 7.73091 5.47488 0.417314 3.59418e-10 -8.29483e-09 -1.24041e-09 2.90554 0.965183 0.102902 3.59424e-10 -8.29483e-09 -1.2404e-09 10.2786 0.731801 0.0259123 3.59416e-10 -8.29483e-09 -1.2404e-09 2.22167 -0.733487 -0.20892 2.16351e-13 -6.05225e-13 -3.29614e-13 -54.4572 0.392766 17.4837 18.8738 -11.6601 -36.0049 0.0417784 -5.81373 0.81992 1.35633e-09 -1.52151e-09 -3.31817e-10 2.35473e-09 -2.63265e-09 -5.66825e-10 1.35632e-09 -1.52151e-09 -3.31811e-10 -7.73091 5.47488 -0.417314 1.35632e-09 -1.52151e-09 -3.31813e-10 -2.90554 0.965183 -0.102902 1.35632e-09 -1.52151e-09 -3.31817e-10 -10.2786 0.731801 -0.0259123 1.35633e-09 -1.52151e-09 -3.31826e-10 -2.22167 -0.733487 0.20892 -2.03217e-16 0.0 -3.88251e-19 -11.2993 -29.5018 -15.1229 -0.565629 49.2666 0.993246 0.960021 -0.630954 12.9968 2.03217e-16 0.0 3.88251e-19 0.527425 -35.4677 -0.270405 0.488901 46.6646 -0.889188 1.84415 -7.62741 6.28061
55.7415 78.4701 -66.964 -9.5739 40.5607 -10.2917 -12.6456 17.8372 16.2965 -0.643468 -1.03246 4.11834 -13.1779 14.2321 -20.44 34.4962 -18.3627 -34.9593 -0.0 0.0 0.0 -0.0 0.0 0.0 2.71304e-13 -9.09583e-13 -2.06009e-13 64.2037 -58.5101 39.9946 -6.37218 -2.21323 11.1517 -0.368769 17.4463 2.52525 1.42479e-09 -1.18975e-08 -7.19673e-10 2.45603e-09 -2.05853e-08 -1.26584e-09 1.4248e-09 -1.18975e-08 -7.19674e-10 7.73091 5.47488 0.417314 1.42479e-09 -1.18975e-08 -7.1968e-10 2.90554 0.965183 0.102902 1.42479e-09 -1.18975e-08 -7.19672e-10 10.2786 0.731801 0.0259123 1.42478e-09 -1.18975e-08 -7.19665e-10 2.22167 -0.733487 -0.20892 2.71297e-13 -9.0957e-13 -2.06205e-13 -54.1953 0.526065 17.3813 18.6096 -11.3602 -35.3939 0.0396337 -5.63997 0.795276 -7.73936e-11 -2.32473e-10 1.16176e-11 -1.30265e-10 -4.02041e-10 2.3926e-11 -7.73975e-11 -2.3247e-10 1.16206e-11 -7.73091 5.47488 -0.417314 -7.7395e-11 -2.32469e-10 1.16202e-11 -2.90554 0.965183 -0.102902 -7.7401e-11 -2.32469e-10 1.1617e-11 -10.2786 0.731801 -0.0259123 -7.73932e-11 -2.32467e-10 1.1608e-11 -2.22167 -0.733487 0.20892 -2.03217e-16 0.0 -3.88251e-19 -12.8486 -30.7533 -15.2207 -0.639504 51.5191 1.09739 0.481793 2.22403 14.9817 2.03217e-16 0.0 3.88251e-19 0.128159 -35.1015 -0.325031 0.506368 47.3952 -0.928249 1.86249 -8.17968 6.21383
55.9184 78.3168 -66.4702 -8.7681 39.9327 -10.2868 -13.4966 18.5435 16.6302 -0.690246 -1.25696 4.15083 -13.1371 14.0223 -20.3884 34.0465 -19.0618 -34.7209 -0.0 0.0 0.0 -0.0 0.0 0.0 2.99726e-13 -1.13883e-12 -1.00365e-13 67.5487 -59.8781 43.2434 -6.21673 -2.14177 10.8733 -0.501 19.9437 2.91888 2.2465e-09 -1.45912e-08 -4.66899e-10 3.8789e-09 -2.52991e-08 -8.43242e-10 2.24651e-09 -1.45912e-08 -4.66899e-10 7.73091 5.47488 0.417314 2.2465e-09 -1.45912e-08 -4.66908e-10 2.90554 0.965183 0.102902 2.24651e-09 -1.45912e-08 -4.66897e-10 10.2786 0.731801 0.0259123 2.2465e-09 -1.45912e-08 -4.66888e-10 2.22167 -0.733487 -0.20892 2.99722e-13 -1.13881e-12 -1.00592e-13 -53.8673 0.678923 17.2588 18.3336 -11.0516 -34.7676 0.0364036 -5.39948 0.761163 -1.49482e-09 9.58682e-10 1.64262e-10 -2.58648e-09 1.65802e-09 2.83588e-10 -1.49482e-09 9.58684e-10 1.64263e-10 -7.73091 5.47488 -0.417314 -1.49482e-09 9.58686e-10 1.64263e-10 -2.90554 0.965183 -0.102902 -1.49483e-09 9.58688e-10 1.64261e-10 -10.2786 0.731801 -0.0259123 -1.49482e-09 9.5869e-10 1.64252e-10 -2.22167 -0.733487 0.20892 -2.03217e-16 0.0 -3.88251e-19 -14.3811 -31.9308 -15.1877 -0.71869 53.5988 1.20767 -0.165319 4.94092 16.8625 2.03217e-16 0.0 3.88251e-19 -0.210256 -34.7081 -0.227331 0.524729 48.1203 -0.969702 1.86752 -8.91368 6.03077
56.0431 78.1431 -65.9836 -7.9397 39.2742 -10.0947 -14.2315 19.0722 16.8744 -0.686275 -1.36372 4.16898 -13.0912 13.8597 -20.3427 33.5937 -19.8027 -34.4973 -0.0 0.0 0.0 -0.0 0.0 0.0 2.92224e-13 -1.1955e-12 -6.66426e-14 69.4926 -60.4534 45.3258 -6.13848 -2.10579 10.7337 -0.597471 21.4126 3.15935 2.43492e-09 -1.56213e-08 -7.03485e-10 4.19985e-09 -2.70598e-08 -1.25569e-09 2.43492e-09 -1.56213e-08 -7.03485e-10 7.73091 5.47488 0.417314 2.43491e-09 -1.56213e-08 -7.03494e-10 2.90554 0.965183 0.102902 2.43492e-09 -1.56213e-08 -7.03481e-10 10.2786 0.731801 0.0259123 2.43491e-09 -1.56213e-08 -7.03472e-10 2.22167 -0.733487 -0.20892 2.92222e-13 -1.19548e-12 -6.6891e-14 -53.5092 0.807573 17.1044 18.0719 -10.7641 -34.1815 0.0313006 -5.0436 0.710687 -2.21249e-09 1.52788e-09 -3.42641e-11 -3.82964e-09 2.64134e-09 -6.33956e-11 -2.21249e-09 1.52788e-09 -3.42641e-11 -7.73091 5.47488 -0.417314 -2.21249e-09 1.52788e-09 -3.42641e-11 -2.90554 0.965183 -0.102902 -2.2125e-09 1.52788e-09 -3.42649e-11 -10.2786 0.731801 -0.0259123 -2.21249e-09 1.52789e-09 -3.42737e-11 -2.22167 -0.733487 0.20892 -2.03217e-16 0.0 -3.88251e-19 -15.7796 -32.9487 -15.1775 -0.79012 55.2454 1.30453 -0.729068 6.83577 18.4357 2.03217e-16 0.0 3.88251e-19 -0.39286 -34.351 0.0495747 0.541245 48.742 -1.007 1.87239 -9.52547 5.90495
56.1088 78.0271 -65.4597 -7.3637 38.6849 -9.8864 -14.8652 19.3603 17.0273 -0.602994 -1.28975 4.17455 -13.0402 13.7413 -20.3098 33.0956 -20.6532 -34.2954 -0.0 0.0 0.0 -0.0 0.0 0.0 2.18423e-13 -9.63643e-13 -1.26095e-13 68.7366 -59.8774 45.1588 -6.18106 -2.12519 10.8098 -0.587153 21.178 3.12247 1.59105e-09 -1.36168e-08 -1.62929e-09 2.72764e-09 -2.34675e-08 -2.84273e-09 1.59106e-09 -1.36168e-08 -1.62929e-09 7.73091 5.47488 0.417314 1.59105e-09 -1.36168e-08 -1.6293e-09 2.90554 0.965183 0.102902 1.59106e-09 -1.36168e-08 -1.62929e-09 10.2786 0.731801 0.0259123 1.59105e-09 -1.36168e-08 -1.62928e-09 2.22167 -0.733487 -0.20892 2.18423e-13 -9.63633e-13 -1.26354e-13 -53.1466 0.895504 16.8944 17.8279 -10.5025 -33.6363 0.0233181 -4.45941 0.627931 -1.84042e-09 1.13532e-09 -7.16874e-10 -3.18392e-09 1.95979e-09 -1.24652e-09 -1.84042e-09 1.13532e-09 -7.16873e-10 -7.73091 5.47488 -0.417314 -1.84042e-09 1.13532e-09 -7.16874e-10 -2.90554 0.965183 -0.102902 -1.84043e-09 1.13532e-09 -7.16874e-10 -10.2786 0.731801 -0.0259123 -1.84042e-09 1.13533e-09 -7.16883e-10 -2.22167 -0.733487 0.20892 -2.03217e-16 0.0 -3.88251e-19 -17.0746 -33.8475 -15.2226 -0.845954 56.4519 1.38198 -1.06899 7.81484 19.805 2.03217e-16 0.0 3.88251e-19 -0.406614 -34.038 0.598922 0.553791 49.2202 -1.03845 1.89126 -9.96665 5.89648
56.1905 77.9187 -64.8698 -6.8795 38.256 -9.7644 -15.4438 19.5128 17.1101 -0.469601 -1.10983 4.1678 -12.9675 13.6623 -20.2876 32.545 -21.5872 -34.1182 -0.0 0.0 0.0 -0.0 0.0 0.0 9.26298e-14 -5.2522e-13 -2.4758e-13 66.4198 -58.6208 43.6961 -6.29642 -2.17796 11.0163 -0.518585 19.9712 2.92861 2.10777e-11 -9.37012e-09 -3.07929e-09 -6.68754e-12 -1.59193e-08 -5.32405e-09 2.10814e-11 -9.37012e-09 -3.07929e-09 7.73091 5.47488 0.417314 2.1076e-11 -9.37012e-09 -3.0793e-09 2.90554 0.965183 0.102902 2.10839e-11 -9.37012e-09 -3.07929e-09 10.2786 0.731801 0.0259123 2.1071e-11 -9.37012e-09 -3.07928e-09 2.22167 -0.733487 -0.20892 9.26281e-14 -5.25232e-13 -2.47844e-13 -52.7548 0.967687 16.6419 17.5902 -10.2532 -33.1065 0.0151266 -3.70614 0.521483 -8.12365e-10 1.27191e-10 -1.76798e-09 -1.40094e-09 2.12176e-10 -3.06683e-09 -8.12364e-10 1.27194e-10 -1.76798e-09 -7.73091 5.47488 -0.417314 -8.12364e-10 1.2719e-10 -1.76798e-09 -2.90554 0.965183 -0.102902 -8.1237e-10 1.27195e-10 -1.76798e-09 -10.2786 0.731801 -0.0259123 -8.12358e-10 1.27196e-10 -1.76799e-09 -2.22167 -0.733487 0.20892 -2.03217e-16 0.0 -3.88251e-19 -18.3042 -34.6522 -15.2393 -0.887658 57.3364 1.44441 -1.23811 8.24247 20.9995 2.03217e-16 0.0 3.88251e-19 -0.305341 -33.7344 1.37362 0.563721 49.6118 -1.06704 1.91386 -10.3884 5.90818
56.3266 77.7985 -64.2569 -6.1825 37.9891 -9.4664 -15.8838 19.5971 17.102 -0.328758 -0.909635 4.14452 -12.8861 13.6331 -20.2611 32.0421 -22.4723 -33.952 -0.0 0.0 0.0 -0.0 0.0 0.0 -2.75443e-14 -7.96724e-14 -4.06639e-13 64.167 -57.3211 42.2554 -6.42319 -2.23604 11.244 -0.455883 18.7663 2.73834 -1.60693e-09 -5.37154e-09 -4.72757e-09 -2.84608e-09 -8.76726e-09 -8.14591e-09 -1.60693e-09 -5.37154e-09 -4.72758e-09 7.73091 5.47488 0.417314 -1.60694e-09 -5.37154e-09 -4.72758e-09 2.90554 0.965183 0.102902 -1.60693e-09 -5.37154e-09 -4.72757e-09 10.2786 0.731801 0.0259123 -1.60694e-09 -5.37154e-09 -4.72757e-09 2.22167 -0.733487 -0.20892 -2.75466e-14 -7.97064e-14 -4.069e-13 -52.2948 1.04251 16.3904 17.3647 -10.0204 -32.608 0.00986008 -2.99339 0.42101 3.19517e-10 -9.91602e-10 -2.97522e-09 5.62432e-10 -1.72734e-09 -5.15716e-09 3.19517e-10 -9.91599e-10 -2.97522e-09 -7.73091 5.47488 -0.417314 3.19517e-10 -9.91606e-10 -2.97523e-09 -2.90554 0.965183 -0.102902 3.19514e-10 -9.91601e-10 -2.97522e-09 -10.2786 0.731801 -0.0259123 3.19526e-10 -9.91601e-10 -2.97523e-09 -2.22167 -0.733487 0.20892 -2.03217e-16 0.0 -3.88251e-19 -19.3736 -35.2514 -15.2103 -0.910222 57.8265 1.48228 -1.19925 8.15474 21.6726 2.03217e-16 0.0 3.88251e-19 -0.0901767 -33.4421 2.19243 0.573023 49.9643 -1.09286 1.92344 -10.7856 5.87753
